<?xml version="1.0" standalone="no"?>
<!DOCTYPE svg PUBLIC "-//W3C//DTD SVG 20010904//EN"
 "http://www.w3.org/TR/2001/REC-SVG-20010904/DTD/svg10.dtd">
<svg version="1.0" xmlns="http://www.w3.org/2000/svg"
 width="356.000000pt" height="290.000000pt" viewBox="0 0 356.000000 290.000000"
 preserveAspectRatio="xMidYMid meet">

<g transform="translate(0.000000,290.000000) scale(0.100000,-0.100000)"
fill="#000000" stroke="none">
<path d="M16 2537 c-4 -199 -8 -847 -9 -1440 l-2 -1077 295 -1 c162 0 377 -2
478 -5 100 -3 182 -1 182 3 0 4 -35 31 -76 58 -92 61 -165 138 -205 217 -39
76 -109 363 -109 445 0 229 284 441 731 547 57 14 125 28 152 32 l47 6 0 -253
c0 -264 5 -299 46 -322 11 -6 498 -12 601 -8 6 1 21 20 32 44 20 40 21 60 21
295 l0 252 28 0 c43 0 186 -27 286 -55 334 -91 537 -249 567 -438 7 -40 2 -90
-22 -222 -38 -214 -49 -247 -110 -334 -58 -83 -147 -160 -259 -223 l-79 -45
461 -7 c253 -4 463 -4 467 -1 5 5 20 2862 15 2873 -1 2 -527 5 -1170 7 -643 3
-1437 7 -1765 10 l-597 4 -6 -362z m1894 -1068 c-22 -23 -40 -46 -40 -52 0 -6
17 -28 37 -49 20 -21 34 -40 31 -44 -8 -8 -98 75 -98 90 0 18 76 96 94 96 11
0 3 -13 -24 -41z m125 4 l35 -38 0 38 c0 27 4 37 13 35 15 -6 17 -178 2 -178
-5 -1 -12 13 -15 30 l-5 31 -34 -35 c-19 -20 -39 -36 -43 -36 -14 0 -88 84
-88 100 0 18 70 90 88 90 7 0 29 -17 47 -37z m-257 -15 c3 -17 -23 -26 -53
-18 -5 2 -20 2 -32 2 -16 -1 -23 4 -23 17 0 17 7 19 52 18 41 -2 53 -6 56 -19z
m42 5 c0 -7 -7 -13 -15 -13 -8 0 -15 6 -15 13 0 8 7 14 15 14 8 0 15 -6 15
-14z m-107 -92 c14 -11 19 -10 32 3 20 20 22 20 46 -3 20 -18 20 -19 -10 -23
-17 -3 -31 -2 -31 1 0 4 -19 5 -41 3 -28 -3 -44 0 -50 9 -6 10 -9 11 -9 2 0
-7 -6 -13 -14 -13 -16 0 -29 27 -15 32 23 8 78 1 92 -11z m107 9 c0 -5 -4 -10
-10 -10 -5 0 -10 5 -10 10 0 6 5 10 10 10 6 0 10 -4 10 -10z"/>
<path d="M1980 1483 c0 -5 9 -19 20 -33 25 -32 25 -43 0 -65 -11 -10 -20 -25
-20 -34 0 -10 11 -4 35 19 19 19 35 38 35 43 0 13 -51 77 -61 77 -5 0 -9 -3
-9 -7z"/>
<path d="M1935 1440 c-18 -20 -18 -21 3 -42 21 -21 22 -21 41 -4 19 17 19 20
4 42 -19 29 -25 30 -48 4z"/>
<path d="M880 385 c0 -8 7 -15 15 -15 8 0 15 -4 15 -9 0 -9 144 -77 225 -106
28 -10 55 -22 61 -27 6 -4 17 -46 24 -93 9 -58 18 -85 27 -85 7 0 13 -7 13
-15 0 -12 16 -15 80 -15 77 0 80 1 80 24 0 12 -11 35 -25 50 -24 26 -35 76
-17 76 5 0 9 7 9 16 0 11 -7 14 -24 11 -13 -2 -21 -2 -18 1 3 3 -27 16 -66 28
-39 12 -83 34 -98 47 -14 14 -53 35 -86 47 -33 12 -95 35 -137 51 -62 23 -78
26 -78 14z"/>
</g>
</svg>
