<?xml version="1.0" standalone="no"?>
<!DOCTYPE svg PUBLIC "-//W3C//DTD SVG 20010904//EN"
 "http://www.w3.org/TR/2001/REC-SVG-20010904/DTD/svg10.dtd">
<svg version="1.0" xmlns="http://www.w3.org/2000/svg"
 width="500.000000pt" height="500.000000pt" viewBox="0 0 500.000000 500.000000"
 preserveAspectRatio="xMidYMid meet">

<g transform="translate(0.000000,500.000000) scale(0.100000,-0.100000)"
fill="#000000" stroke="none">
<path d="M1590 2500 l0 -370 45 0 45 0 2 159 3 159 72 -82 c40 -44 105 -116
145 -159 72 -76 74 -77 123 -77 46 0 55 4 95 43 67 63 290 316 290 328 0 12
-264 304 -311 343 -23 20 -42 26 -76 26 -44 0 -49 -3 -119 -76 -40 -42 -105
-113 -146 -159 l-73 -83 -3 159 -2 159 -45 0 -45 0 0 -370z m477 288 l32 -33
-115 -127 -115 -128 115 -127 115 -128 -34 -34 c-43 -44 -37 -48 -205 142
l-131 147 122 138 c115 130 167 182 180 182 3 0 19 -15 36 -32z m166 -183 c48
-53 87 -100 87 -105 0 -14 -171 -202 -180 -198 -4 2 -46 47 -94 101 l-87 98
92 100 c50 54 92 99 94 99 1 0 41 -43 88 -95z"/>
<path d="M2205 2860 c-3 -5 12 -18 34 -29 42 -22 311 -310 311 -333 -1 -22
-272 -310 -312 -331 -48 -24 -40 -37 20 -37 59 0 79 17 262 222 l131 147 -146
163 c-81 90 -161 173 -178 186 -33 23 -110 31 -122 12z"/>
<path d="M2740 2690 c0 -53 4 -90 10 -90 6 0 10 16 10 35 0 29 4 35 20 35 13
0 28 -13 41 -35 12 -19 28 -35 36 -35 15 0 13 6 -19 52 -18 26 -18 28 1 77 15
39 16 51 6 51 -7 0 -20 -19 -27 -42 -11 -31 -21 -44 -36 -46 -20 -3 -22 1 -22
42 0 25 -4 46 -10 46 -6 0 -10 -37 -10 -90z"/>
<path d="M2912 2732 c-18 -12 -26 -72 -13 -104 11 -30 37 -36 72 -18 13 7 19
7 19 0 0 -5 5 -10 10 -10 6 0 10 30 10 70 l0 70 -42 0 c-24 0 -49 -4 -56 -8z
m78 -50 c0 -43 -14 -62 -47 -62 -20 0 -23 5 -23 43 0 51 4 57 42 57 26 0 28
-3 28 -38z"/>
<path d="M3060 2650 c0 -53 4 -90 10 -90 6 0 10 9 10 20 0 16 7 20 33 20 44 0
57 15 57 70 0 50 -13 70 -45 70 -12 0 -26 -5 -33 -12 -9 -9 -12 -9 -12 0 0 7
-4 12 -10 12 -6 0 -10 -37 -10 -90z m85 20 c0 -43 -1 -45 -32 -48 -32 -3 -33
-2 -33 35 0 44 15 65 45 61 17 -3 20 -11 20 -48z"/>
<path d="M3222 2731 c-19 -11 -27 -83 -13 -110 13 -23 41 -27 72 -11 13 7 19
7 19 0 0 -5 5 -10 10 -10 6 0 10 30 10 70 l0 70 -42 0 c-24 0 -49 -4 -56 -9z
m78 -50 c0 -67 -62 -88 -68 -22 -5 48 3 61 38 61 28 0 30 -2 30 -39z"/>
<path d="M2734 2386 c-12 -31 1 -61 35 -78 45 -22 53 -31 45 -51 -4 -12 -18
-17 -51 -17 -27 0 -42 -4 -38 -10 8 -13 71 -13 96 0 19 11 25 45 11 66 -4 7
-24 19 -45 28 -51 21 -48 50 6 54 53 4 46 22 -8 22 -30 0 -47 -5 -51 -14z"/>
<path d="M2882 2348 c-15 -15 -16 -100 0 -116 15 -15 54 -16 63 -2 11 18 25 0
21 -26 -3 -16 0 -24 10 -24 12 0 14 16 12 88 l-3 87 -45 3 c-26 2 -50 -2 -58
-10z m83 -47 c1 -39 -19 -63 -49 -59 -16 2 -22 11 -24 36 -5 51 3 64 40 60 29
-3 32 -6 33 -37z"/>
<path d="M3030 2301 c0 -71 16 -91 61 -74 16 6 29 7 29 2 0 -5 5 -9 10 -9 6 0
10 30 10 70 0 81 -17 95 -22 19 -3 -55 -21 -78 -52 -66 -12 5 -16 20 -16 62 0
30 -4 55 -10 55 -6 0 -10 -26 -10 -59z"/>
<path d="M3196 2338 c-18 -26 -20 -56 -6 -92 10 -28 37 -34 71 -16 13 7 19 7
19 0 0 -5 5 -10 10 -10 6 0 10 30 10 70 l0 70 -44 0 c-35 0 -48 -5 -60 -22z
m84 -36 c0 -43 -14 -62 -47 -62 -20 0 -23 5 -23 43 0 51 4 57 42 57 26 0 28
-3 28 -38z"/>
<path d="M3340 2289 c0 -55 3 -69 15 -69 11 0 15 12 15 50 0 39 4 53 20 62 28
18 25 24 -15 25 l-35 1 0 -69z"/>
<path d="M3442 2343 c-12 -31 -6 -104 9 -114 19 -12 89 -11 89 0 0 6 -17 11
-37 13 -27 2 -39 8 -41 21 -3 14 4 17 37 17 32 0 41 4 42 18 4 49 -9 62 -59
62 -22 0 -35 -6 -40 -17z m76 -25 c3 -14 -3 -18 -27 -18 -25 0 -31 4 -31 21 0
16 5 20 27 17 17 -2 29 -10 31 -20z"/>
</g>
</svg>
